<svg height="4008" width="740" xmlns="http://www.w3.org/2000/svg"><rect fill="#c5e1a5" height="30" rx="2" stroke="#444" width="420" x="50" y="65"/><text fill="#222" font-family="monospace" font-size="13" x="65" y="85"><tspan x="65" y="85">document.addEventListener('DOMContentLoaded', *())</tspan></text><g fill="#a5d6a7" stroke="#444"><path d="m87 113.5h89v30h-89z"/><path d="m97 113.5v30"/><path d="m166 113.5v30"/></g><text fill="#222" font-family="monospace" font-size="13" x="112" y="133.5"><tspan x="112" y="133.5">() =&gt;</tspan></text><rect fill="#90caf9" height="30" rx="3" stroke="#444" width="412.2" x="124" y="162"/><text fill="#222" font-family="monospace" font-size="13" x="139" y="182"><tspan x="139" y="182">let fadeElement = document.getElementById('fade')</tspan></text><rect fill="#90caf9" height="30" rx="3" stroke="#444" width="443.4" x="124" y="210.5"/><text fill="#222" font-family="monospace" font-size="13" x="139" y="230.5"><tspan x="139" y="230.5">let entryLink = document.getElementById('entry-lin...</tspan></text><rect fill="#ce93d8" height="30" rx="3" stroke="#444" width="262.8" x="154" y="274"/><path d="m124 289 30-30 30 30-30 30z" fill="#ce93d8" stroke="#444"/><text fill="#222" font-family="monospace" font-size="13" x="199" y="294"><tspan x="199" y="294">(fadeElement &amp;&amp; entryLink)</tspan></text><text fill="#222" font-family="monospace" font-size="13" x="146.2" y="294">if</text><text fill="#222" font-family="monospace" font-size="13" x="161.8" y="320.95">+</text><rect fill="#c5e1a5" height="30" rx="2" stroke="#444" width="412.2" x="174" y="329"/><text fill="#222" font-family="monospace" font-size="13" x="189" y="349"><tspan x="189" y="349">fadeElement.addEventListener('animationend', *())</tspan></text><g fill="#a5d6a7" stroke="#444"><path d="m211 377.5h128v30h-128z"/><path d="m221 377.5v30"/><path d="m329 377.5v30"/></g><text fill="#222" font-family="monospace" font-size="13" x="236" y="397.5"><tspan x="236" y="397.5">function()</tspan></text><rect fill="#c5e1a5" height="30" rx="2" stroke="#444" width="303" x="248" y="426"/><text fill="#222" font-family="monospace" font-size="13" x="263" y="446"><tspan x="263" y="446">fadeElement.classList.add('hidden')</tspan></text><rect fill="#c5e1a5" height="30" rx="2" stroke="#444" width="310.8" x="248" y="474.5"/><text fill="#222" font-family="monospace" font-size="13" x="263" y="494.5"><tspan x="263" y="494.5">entryLink.classList.remove('hidden')</tspan></text><rect fill="#c5e1a5" height="30" rx="2" stroke="#444" width="342" x="174" y="523"/><text fill="#222" font-family="monospace" font-size="13" x="189" y="543"><tspan x="189" y="543">entryLink.addEventListener('click', *())</tspan></text><g fill="#a5d6a7" stroke="#444"><path d="m211 571.5h167v30h-167z"/><path d="m221 571.5v30"/><path d="m368 571.5v30"/></g><text fill="#222" font-family="monospace" font-size="13" x="236" y="591.5"><tspan x="236" y="591.5">function(event)</tspan></text><rect fill="#90caf9" height="30" rx="3" stroke="#444" width="318.6" x="248" y="620"/><text fill="#222" font-family="monospace" font-size="13" x="263" y="640"><tspan x="263" y="640">window.location.href = entryLink.href</tspan></text><rect fill="#c5e1a5" height="30" rx="2" stroke="#444" width="365.4" x="174" y="668.5"/><text fill="#222" font-family="monospace" font-size="13" x="189" y="688.5"><tspan x="189" y="688.5">entryLink.addEventListener('touchend', *())</tspan></text><g stroke="#444"><path d="m211 717h167v30h-167z" fill="#a5d6a7"/><path d="m221 717v30" fill="#a5d6a7"/><path d="m368 717v30" fill="#a5d6a7"/></g><text fill="#222" font-family="monospace" font-size="13" x="236" y="737"><tspan x="236" y="737">function(event)</tspan></text><rect fill="#c5e1a5" height="30" rx="2" stroke="#444" width="201.6" x="248" y="765.5"/><text fill="#222" font-family="monospace" font-size="13" x="263" y="785.5"><tspan x="263" y="785.5">event.preventDefault()</tspan></text><rect fill="#90caf9" height="30" rx="3" stroke="#444" width="318.6" x="248" y="814"/><text fill="#222" font-family="monospace" font-size="13" x="263" y="834"><tspan x="263" y="834">window.location.href = entryLink.href</tspan></text><path d="m124 879h159.2v30h-159.2z" fill="#80cbc4" stroke="#444"/><path d="m134 879v30" fill="#80cbc4" stroke="#444"/><path d="m273.2 879v30" fill="#80cbc4" stroke="#444"/><text fill="#222" font-family="monospace" font-size="13" x="149" y="899"><tspan x="149" y="899">class Firefly</tspan></text><path d="m161 927.5h182.6v30h-182.6z" fill="#a5d6a7" stroke="#444"/><path d="m171 927.5v30" fill="#a5d6a7" stroke="#444"/><path d="m333.6 927.5v30" fill="#a5d6a7" stroke="#444"/><text fill="#222" font-family="monospace" font-size="13" x="186" y="947.5"><tspan x="186" y="947.5">constructor(w, h)</tspan></text><rect fill="#90caf9" height="30" rx="3" stroke="#444" width="232.8" x="198" y="976"/><text fill="#222" font-family="monospace" font-size="13" x="213" y="996"><tspan x="213" y="996">this.x = Math.random() * w</tspan></text><rect fill="#90caf9" height="30" rx="3" stroke="#444" width="232.8" x="198" y="1024.5"/><text fill="#222" font-family="monospace" font-size="13" x="213" y="1044.5"><tspan x="213" y="1044.5">this.y = Math.random() * h</tspan></text><rect fill="#90caf9" height="30" rx="3" stroke="#444" width="232.8" x="198" y="1073"/><text fill="#222" font-family="monospace" font-size="13" x="213" y="1093"><tspan x="213" y="1093">this.s = Math.random() * 2</tspan></text><rect fill="#90caf9" height="30" rx="3" stroke="#444" width="326.4" x="198" y="1121.5"/><text fill="#222" font-family="monospace" font-size="13" x="213" y="1141.5"><tspan x="213" y="1141.5">this.ang = Math.random() * 2 * Math.PI</tspan></text><rect fill="#90caf9" height="30" rx="3" stroke="#444" width="248.4" x="198" y="1170"/><text fill="#222" font-family="monospace" font-size="13" x="213" y="1190"><tspan x="213" y="1190">this.v = this.s * this.s / 4</tspan></text><path d="m161 1233.5h96.8v30h-96.8z" fill="#a5d6a7" stroke="#444"/><path d="m171 1233.5v30" fill="#a5d6a7" stroke="#444"/><path d="m247.8 1233.5v30" fill="#a5d6a7" stroke="#444"/><text fill="#222" font-family="monospace" font-size="13" x="186" y="1253.5"><tspan x="186" y="1253.5">move()</tspan></text><rect fill="#90caf9" height="30" rx="3" stroke="#444" width="318.6" x="198" y="1282"/><text fill="#222" font-family="monospace" font-size="13" x="213" y="1302"><tspan x="213" y="1302">this.x += this.v * Math.cos(this.ang)</tspan></text><rect fill="#90caf9" height="30" rx="3" stroke="#444" width="318.6" x="198" y="1330.5"/><text fill="#222" font-family="monospace" font-size="13" x="213" y="1350.5"><tspan x="213" y="1350.5">this.y += this.v * Math.sin(this.ang)</tspan></text><rect fill="#90caf9" height="30" rx="3" stroke="#444" width="443.4" x="198" y="1379"/><text fill="#222" font-family="monospace" font-size="13" x="213" y="1399"><tspan x="213" y="1399">this.ang += Math.random() * 20 * Math.PI / 180 - 1...</tspan></text><path d="m161 1442.5h338.6v30h-338.6z" fill="#a5d6a7" stroke="#444"/><path d="m171 1442.5v30" fill="#a5d6a7" stroke="#444"/><path d="m489.6 1442.5v30" fill="#a5d6a7" stroke="#444"/><text fill="#222" font-family="monospace" font-size="13" x="186" y="1462.5"><tspan x="186" y="1462.5">updateCanvasDimensions(width, height)</tspan></text><rect fill="#90caf9" height="30" rx="3" stroke="#444" width="264" x="198" y="1491"/><text fill="#222" font-family="monospace" font-size="13" x="213" y="1511"><tspan x="213" y="1511">this.x = Math.random() * width</tspan></text><rect fill="#90caf9" height="30" rx="3" stroke="#444" width="271.8" x="198" y="1539.5"/><text fill="#222" font-family="monospace" font-size="13" x="213" y="1559.5"><tspan x="213" y="1559.5">this.y = Math.random() * height</tspan></text><path d="m161 1603h104.6v30h-104.6z" fill="#a5d6a7" stroke="#444"/><path d="m171 1603v30" fill="#a5d6a7" stroke="#444"/><path d="m255.6 1603v30" fill="#a5d6a7" stroke="#444"/><text fill="#222" font-family="monospace" font-size="13" x="186" y="1623"><tspan x="186" y="1623">show(c)</tspan></text><rect fill="#c5e1a5" height="30" rx="2" stroke="#444" width="131.4" x="198" y="1651.5"/><text fill="#222" font-family="monospace" font-size="13" x="213" y="1671.5"><tspan x="213" y="1671.5">c.beginPath()</tspan></text><rect fill="#c5e1a5" height="30" rx="2" stroke="#444" width="381" x="198" y="1700"/><text fill="#222" font-family="monospace" font-size="13" x="213" y="1720"><tspan x="213" y="1720">c.arc(this.x, this.y, this.s, 0, 2 * Math.PI)</tspan></text><rect fill="#90caf9" height="30" rx="3" stroke="#444" width="209.4" x="198" y="1748.5"/><text fill="#222" font-family="monospace" font-size="13" x="213" y="1768.5"><tspan x="213" y="1768.5">c.fillStyle = "#DFF8EB"</tspan></text><rect fill="#c5e1a5" height="30" rx="2" stroke="#444" width="92.4" x="198" y="1797"/><text fill="#222" font-family="monospace" font-size="13" x="213" y="1817"><tspan x="213" y="1817">c.fill()</tspan></text><rect fill="#90caf9" height="30" rx="3" stroke="#444" width="108" x="124" y="1845.5"/><text fill="#222" font-family="monospace" font-size="13" x="139" y="1865.5"><tspan x="139" y="1865.5">let f = []</tspan></text><path d="m124 1909h167v30h-167z" fill="#a5d6a7" stroke="#444"/><path d="m134 1909v30" fill="#a5d6a7" stroke="#444"/><path d="m281 1909v30" fill="#a5d6a7" stroke="#444"/><text fill="#222" font-family="monospace" font-size="13" x="149" y="1929"><tspan x="149" y="1929">function draw()</tspan></text><rect fill="#ce93d8" height="30" rx="3" stroke="#444" width="184.8" x="191" y="1972.5"/><path d="m161 1987.5 30-30 30 30-30 30z" fill="#ce93d8" stroke="#444"/><text fill="#222" font-family="monospace" font-size="13" x="236" y="1992.5"><tspan x="236" y="1992.5">(f.length &lt; 100)</tspan></text><text fill="#222" font-family="monospace" font-size="13" x="183.2" y="1992.5">if</text><text fill="#222" font-family="monospace" font-size="13" x="198.8" y="2019.45">+</text><rect fill="#b39ddb" height="30" rx="3" stroke="#444" width="106.8" x="241" y="2062.5"/><path d="m211 2077.5 30-30 30 30-30 30z" fill="#b39ddb" stroke="#444"/><text fill="#222" font-family="monospace" font-size="13" x="286" y="2082.5"><tspan x="286" y="2082.5">j &lt; 10</tspan></text><text fill="#222" font-family="monospace" font-size="13" x="229.3" y="2082.5">for</text><rect fill="#90caf9" height="30" rx="3" stroke="#444" width="53.4" x="261" y="2117.5"/><text fill="#222" font-family="monospace" font-size="13" x="276" y="2137.5"><tspan x="276" y="2137.5">j++</tspan></text><rect fill="#90caf9" height="30" rx="3" stroke="#444" width="162.6" x="261" y="2166"/><text fill="#222" font-family="monospace" font-size="13" x="276" y="2186"><tspan x="276" y="2186">new Firefly(w, h)</tspan></text><rect fill="#c5e1a5" height="30" rx="2" stroke="#444" width="225" x="261" y="2214.5"/><text fill="#222" font-family="monospace" font-size="13" x="276" y="2234.5"><tspan x="276" y="2234.5">f.push(new Firefly(w, h))</tspan></text><rect fill="#b39ddb" height="30" rx="3" stroke="#444" width="153.6" x="191" y="2299.5"/><path d="m161 2314.5 30-30 30 30-30 30z" fill="#b39ddb" stroke="#444"/><text fill="#222" font-family="monospace" font-size="13" x="236" y="2319.5"><tspan x="236" y="2319.5">i &lt; f.length</tspan></text><text fill="#222" font-family="monospace" font-size="13" x="179.3" y="2319.5">for</text><rect fill="#90caf9" height="30" rx="3" stroke="#444" width="53.4" x="211" y="2354.5"/><text fill="#222" font-family="monospace" font-size="13" x="226" y="2374.5"><tspan x="226" y="2374.5">i++</tspan></text><rect fill="#c5e1a5" height="30" rx="2" stroke="#444" width="115.8" x="211" y="2403"/><text fill="#222" font-family="monospace" font-size="13" x="226" y="2423"><tspan x="226" y="2423">f[i].move()</tspan></text><rect fill="#c5e1a5" height="30" rx="2" stroke="#444" width="170.4" x="211" y="2451.5"/><text fill="#222" font-family="monospace" font-size="13" x="226" y="2471.5"><tspan x="226" y="2471.5">f[i].show(context)</tspan></text><rect fill="#ce93d8" height="30" rx="3" stroke="#444" width="473.4" x="241" y="2515"/><path d="m211 2530 30-30 30 30-30 30z" fill="#ce93d8" stroke="#444"/><text fill="#222" font-family="monospace" font-size="13" x="286" y="2535"><tspan x="286" y="2535">(f[i].x &lt; 0 || f[i].x &gt; w || f[i].y &lt; 0 || f[i].y ...</tspan></text><text fill="#222" font-family="monospace" font-size="13" x="233.2" y="2535">if</text><text fill="#222" font-family="monospace" font-size="13" x="248.8" y="2561.95">+</text><rect fill="#c5e1a5" height="30" rx="2" stroke="#444" width="139.2" x="261" y="2570"/><text fill="#222" font-family="monospace" font-size="13" x="276" y="2590"><tspan x="276" y="2590">f.splice(i, 1)</tspan></text><path d="m124 2635h213.8v30h-213.8z" fill="#a5d6a7" stroke="#444"/><path d="m134 2635v30" fill="#a5d6a7" stroke="#444"/><path d="m327.8 2635v30" fill="#a5d6a7" stroke="#444"/><text fill="#222" font-family="monospace" font-size="13" x="149" y="2655"><tspan x="149" y="2655">function init(elemid)</tspan></text><rect fill="#90caf9" height="30" rx="3" stroke="#444" width="342" x="161" y="2683.5"/><text fill="#222" font-family="monospace" font-size="13" x="176" y="2703.5"><tspan x="176" y="2703.5">canvas = document.getElementById(elemid)</tspan></text><rect fill="#90caf9" height="30" rx="3" stroke="#444" width="287.4" x="161" y="2732"/><text fill="#222" font-family="monospace" font-size="13" x="176" y="2752"><tspan x="176" y="2752">context = canvas.getContext('2d')</tspan></text><rect fill="#90caf9" height="30" rx="3" stroke="#444" width="310.8" x="161" y="2780.5"/><text fill="#222" font-family="monospace" font-size="13" x="176" y="2800.5"><tspan x="176" y="2800.5">w = canvas.width = window.innerWidth</tspan></text><rect fill="#90caf9" height="30" rx="3" stroke="#444" width="279.6" x="198" y="2829"/><text fill="#222" font-family="monospace" font-size="13" x="213" y="2849"><tspan x="213" y="2849">canvas.width = window.innerWidth</tspan></text><rect fill="#90caf9" height="30" rx="3" stroke="#444" width="326.4" x="161" y="2877.5"/><text fill="#222" font-family="monospace" font-size="13" x="176" y="2897.5"><tspan x="176" y="2897.5">h = canvas.height = window.innerHeight</tspan></text><rect fill="#90caf9" height="30" rx="3" stroke="#444" width="295.2" x="198" y="2926"/><text fill="#222" font-family="monospace" font-size="13" x="213" y="2946"><tspan x="213" y="2946">canvas.height = window.innerHeight</tspan></text><rect fill="#90caf9" height="30" rx="3" stroke="#444" width="373.2" x="161" y="2974.5"/><text fill="#222" font-family="monospace" font-size="13" x="176" y="2994.5"><tspan x="176" y="2994.5">context.fillStyle = "rgba(152, 255, 191, 1)"</tspan></text><rect fill="#c5e1a5" height="30" rx="2" stroke="#444" width="248.4" x="161" y="3023"/><text fill="#222" font-family="monospace" font-size="13" x="176" y="3043"><tspan x="176" y="3043">context.fillRect(0, 0, w, h)</tspan></text><g stroke="#444"><rect fill="#90caf9" height="30" rx="3" width="139.2" x="161" y="3071.5"/><g fill="#a5d6a7"><path d="m300.2 3081.5h5"/><path d="m300.2 3091.5h5"/><path d="m305.2 3075.5 16 11-16 11z"/></g></g><text fill="#222" font-family="monospace" font-size="13" x="176" y="3091.5"><tspan x="176" y="3091.5">return context</tspan></text><path d="m124 3135h167v30h-167z" fill="#a5d6a7" stroke="#444"/><path d="m134 3135v30" fill="#a5d6a7" stroke="#444"/><path d="m281 3135v30" fill="#a5d6a7" stroke="#444"/><text fill="#222" font-family="monospace" font-size="13" x="149" y="3155"><tspan x="149" y="3155">function loop()</tspan></text><rect fill="#c5e1a5" height="30" rx="2" stroke="#444" width="295.2" x="161" y="3183.5"/><text fill="#222" font-family="monospace" font-size="13" x="176" y="3203.5"><tspan x="176" y="3203.5">window.requestAnimationFrame(loop)</tspan></text><rect fill="#c5e1a5" height="30" rx="2" stroke="#444" width="443.4" x="161" y="3232"/><text fill="#222" font-family="monospace" font-size="13" x="176" y="3252"><tspan x="176" y="3252">context.clearRect(0, 0, canvas.width, canvas.heigh...</tspan></text><rect fill="#c5e1a5" height="30" rx="2" stroke="#444" width="76.8" x="161" y="3280.5"/><text fill="#222" font-family="monospace" font-size="13" x="176" y="3300.5"><tspan x="176" y="3300.5">draw()</tspan></text><rect fill="#c5e1a5" height="30" rx="2" stroke="#444" width="326.4" x="124" y="3329"/><text fill="#222" font-family="monospace" font-size="13" x="139" y="3349"><tspan x="139" y="3349">window.addEventListener('resize', *())</tspan></text><path d="m161 3377.5h128v30h-128z" fill="#a5d6a7" stroke="#444"/><path d="m171 3377.5v30" fill="#a5d6a7" stroke="#444"/><path d="m279 3377.5v30" fill="#a5d6a7" stroke="#444"/><text fill="#222" font-family="monospace" font-size="13" x="186" y="3397.5"><tspan x="186" y="3397.5">function()</tspan></text><rect fill="#90caf9" height="30" rx="3" stroke="#444" width="310.8" x="198" y="3426"/><text fill="#222" font-family="monospace" font-size="13" x="213" y="3446"><tspan x="213" y="3446">w = canvas.width = window.innerWidth</tspan></text><rect fill="#90caf9" height="30" rx="3" stroke="#444" width="279.6" x="235" y="3474.5"/><text fill="#222" font-family="monospace" font-size="13" x="250" y="3494.5"><tspan x="250" y="3494.5">canvas.width = window.innerWidth</tspan></text><rect fill="#90caf9" height="30" rx="3" stroke="#444" width="326.4" x="198" y="3523"/><text fill="#222" font-family="monospace" font-size="13" x="213" y="3543"><tspan x="213" y="3543">h = canvas.height = window.innerHeight</tspan></text><rect fill="#90caf9" height="30" rx="3" stroke="#444" width="295.2" x="235" y="3571.5"/><text fill="#222" font-family="monospace" font-size="13" x="250" y="3591.5"><tspan x="250" y="3591.5">canvas.height = window.innerHeight</tspan></text><rect fill="#b39ddb" height="30" rx="3" stroke="#444" width="153.6" x="228" y="3655"/><path d="m198 3670 30-30 30 30-30 30z" fill="#b39ddb" stroke="#444"/><text fill="#222" font-family="monospace" font-size="13" x="273" y="3675"><tspan x="273" y="3675">i &lt; f.length</tspan></text><text fill="#222" font-family="monospace" font-size="13" x="216.3" y="3675">for</text><rect fill="#90caf9" height="30" rx="3" stroke="#444" width="53.4" x="248" y="3710"/><text fill="#222" font-family="monospace" font-size="13" x="263" y="3730"><tspan x="263" y="3730">i++</tspan></text><rect fill="#c5e1a5" height="30" rx="2" stroke="#444" width="287.4" x="248" y="3758.5"/><text fill="#222" font-family="monospace" font-size="13" x="263" y="3778.5"><tspan x="263" y="3778.5">f[i].updateCanvasDimensions(w, h)</tspan></text><rect fill="#c5e1a5" height="30" rx="2" stroke="#444" width="154.8" x="198" y="3807"/><text fill="#222" font-family="monospace" font-size="13" x="213" y="3827"><tspan x="213" y="3827">init('myCanvas')</tspan></text><rect fill="#c5e1a5" height="30" rx="2" stroke="#444" width="76.8" x="198" y="3855.5"/><text fill="#222" font-family="monospace" font-size="13" x="213" y="3875.5"><tspan x="213" y="3875.5">loop()</tspan></text><rect fill="#c5e1a5" height="30" rx="2" stroke="#444" width="154.8" x="124" y="3904"/><text fill="#222" font-family="monospace" font-size="13" x="139" y="3924"><tspan x="139" y="3924">init('myCanvas')</tspan></text><rect fill="#c5e1a5" height="30" rx="2" stroke="#444" width="76.8" x="124" y="3952.5"/><text fill="#222" font-family="monospace" font-size="13" x="139" y="3972.5"><tspan x="139" y="3972.5">loop()</tspan></text><path d="m25 13.75h216.6v24h-216.6z" fill="#fff59d" stroke="#444"/><circle cx="25" cy="25" fill="#fff59d" r="15" stroke="#444"/><text fill="#222" font-family="monospace" font-size="13" x="55" y="30"><tspan x="55" y="30">Program: source module</tspan></text><path d="m25 40v36q0 4 4 4h13" fill="none" stroke="#444"/><path d="m42 77 8 3-8 3z" fill="#333"/><path d="m68.5 95v29.5q0 4 4 4h14.5" fill="none" stroke="#444"/>
               false
            <path d="m105.5 143.5v29.5q0 4 4 4h6.5" fill="none" stroke="#444"/><path d="m116 174 8 3-8 3z" fill="#333"/><path d="m105.5 143.5v78q0 4 4 4h6.5" fill="none" stroke="#444"/><path d="m116 222.5 8 3-8 3z" fill="#333"/><path d="m105.5 143.5v141.5q0 4 4 4h6.5" fill="none" stroke="#444"/><path d="m116 286 8 3-8 3z" fill="#333"/><path d="m154 319v21q0 4 4 4h8" fill="none" stroke="#444"/><path d="m166 341 8 3-8 3z" fill="#333"/><path d="m192.5 359v29.5q0 4 4 4h14.5" fill="none" stroke="#444"/>
               false
            <path d="m229.5 407.5v29.5q0 4 4 4h6.5" fill="none" stroke="#444"/><path d="m240 438 8 3-8 3z" fill="#333"/><path d="m229.5 407.5v78q0 4 4 4h6.5" fill="none" stroke="#444"/><path d="m240 486.5 8 3-8 3z" fill="#333"/><path d="m154 319v215q0 4 4 4h8" fill="none" stroke="#444"/><path d="m166 535 8 3-8 3z" fill="#333"/><path d="m192.5 553v29.5q0 4 4 4h14.5" fill="none" stroke="#444"/>
               false
            <path d="m229.5 601.5v29.5q0 4 4 4h6.5" fill="none" stroke="#444"/><path d="m240 632 8 3-8 3z" fill="#333"/><path d="m154 319v360.5q0 4 4 4h8" fill="none" stroke="#444"/><path d="m166 680.5 8 3-8 3z" fill="#333"/><path d="m192.5 698.5v29.5q0 4 4 4h14.5" fill="none" stroke="#444"/>
               false
            <path d="m229.5 747v29.5q0 4 4 4h6.5" fill="none" stroke="#444"/><path d="m240 777.5 8 3-8 3z" fill="#333"/><path d="m229.5 747v78q0 4 4 4h6.5" fill="none" stroke="#444"/><path d="m240 826 8 3-8 3z" fill="#333"/><path d="m105.5 143.5v746.5q0 4 4 4h6.5" fill="none" stroke="#444"/><path d="m116 891 8 3-8 3z" fill="#333"/><path d="m142.5 909v29.5q0 4 4 4h6.5" fill="none" stroke="#444"/><path d="m153 939.5 8 3-8 3z" fill="#333"/><path d="m179.5 957.5v29.5q0 4 4 4h6.5" fill="none" stroke="#444"/><path d="m190 988 8 3-8 3z" fill="#333"/><path d="m179.5 957.5v78q0 4 4 4h6.5" fill="none" stroke="#444"/><path d="m190 1036.5 8 3-8 3z" fill="#333"/><path d="m179.5 957.5v126.5q0 4 4 4h6.5" fill="none" stroke="#444"/><path d="m190 1085 8 3-8 3z" fill="#333"/><path d="m179.5 957.5v175q0 4 4 4h6.5" fill="none" stroke="#444"/><path d="m190 1133.5 8 3-8 3z" fill="#333"/><path d="m179.5 957.5v223.5q0 4 4 4h6.5" fill="none" stroke="#444"/><path d="m190 1182 8 3-8 3z" fill="#333"/><path d="m142.5 909v335.5q0 4 4 4h6.5" fill="none" stroke="#444"/><path d="m153 1245.5 8 3-8 3z" fill="#333"/><path d="m179.5 1263.5v29.5q0 4 4 4h6.5" fill="none" stroke="#444"/><path d="m190 1294 8 3-8 3z" fill="#333"/><path d="m179.5 1263.5v78q0 4 4 4h6.5" fill="none" stroke="#444"/><path d="m190 1342.5 8 3-8 3z" fill="#333"/><path d="m179.5 1263.5v126.5q0 4 4 4h6.5" fill="none" stroke="#444"/><path d="m190 1391 8 3-8 3z" fill="#333"/><path d="m142.5 909v544.5q0 4 4 4h6.5" fill="none" stroke="#444"/><path d="m153 1454.5 8 3-8 3z" fill="#333"/><path d="m179.5 1472.5v29.5q0 4 4 4h6.5" fill="none" stroke="#444"/><path d="m190 1503 8 3-8 3z" fill="#333"/><path d="m179.5 1472.5v78q0 4 4 4h6.5" fill="none" stroke="#444"/><path d="m190 1551.5 8 3-8 3z" fill="#333"/><path d="m142.5 909v705q0 4 4 4h6.5" fill="none" stroke="#444"/><path d="m153 1615 8 3-8 3z" fill="#333"/><path d="m179.5 1633v29.5q0 4 4 4h6.5" fill="none" stroke="#444"/><path d="m190 1663.5 8 3-8 3z" fill="#333"/><path d="m179.5 1633v78q0 4 4 4h6.5" fill="none" stroke="#444"/><path d="m190 1712 8 3-8 3z" fill="#333"/><path d="m179.5 1633v126.5q0 4 4 4h6.5" fill="none" stroke="#444"/><path d="m190 1760.5 8 3-8 3z" fill="#333"/><path d="m179.5 1633v175q0 4 4 4h6.5" fill="none" stroke="#444"/><path d="m190 1809 8 3-8 3z" fill="#333"/><path d="m105.5 143.5v1713q0 4 4 4h6.5" fill="none" stroke="#444"/><path d="m116 1857.5 8 3-8 3z" fill="#333"/><path d="m105.5 143.5v1776.5q0 4 4 4h6.5" fill="none" stroke="#444"/><path d="m116 1921 8 3-8 3z" fill="#333"/><path d="m142.5 1939v44.5q0 4 4 4h6.5" fill="none" stroke="#444"/><path d="m153 1984.5 8 3-8 3z" fill="#333"/><path d="m191 2017.5v56q0 4 4 4h8" fill="none" stroke="#444"/><path d="m203 2074.5 8 3-8 3z" fill="#333"/><path d="m241 2107.5v21q0 4 4 4h8" fill="none" stroke="#444"/><path d="m253 2129.5 8 3-8 3z" fill="#333"/><path d="m241 2107.5v69.5q0 4 4 4h8" fill="none" stroke="#444"/><path d="m253 2178 8 3-8 3z" fill="#333"/><path d="m241 2107.5v118q0 4 4 4h8" fill="none" stroke="#444"/><path d="m253 2226.5 8 3-8 3z" fill="#333"/><path d="m486 2229.5h16q4 0 4-4v-190q0-8-4-8h-253q-8 0-8 4v8" fill="none" stroke="#444"/><path d="m238 2039.5 3 8 3-8z" fill="#333"/><path d="m142.5 1939v371.5q0 4 4 4h6.5" fill="none" stroke="#444"/><path d="m153 2311.5 8 3-8 3z" fill="#333"/><path d="m191 2344.5v21q0 4 4 4h8" fill="none" stroke="#444"/><path d="m203 2366.5 8 3-8 3z" fill="#333"/><path d="m191 2344.5v69.5q0 4 4 4h8" fill="none" stroke="#444"/><path d="m203 2415 8 3-8 3z" fill="#333"/><path d="m191 2344.5v118q0 4 4 4h8" fill="none" stroke="#444"/><path d="m203 2463.5 8 3-8 3z" fill="#333"/><path d="m191 2344.5v181.5q0 4 4 4h8" fill="none" stroke="#444"/><path d="m203 2527 8 3-8 3z" fill="#333"/><path d="m241 2560v21q0 4 4 4h8" fill="none" stroke="#444"/><path d="m253 2582 8 3-8 3z" fill="#333"/><path d="m400.2 2585h330.2q4 0 4-4v-308.5q0-8-4-8h-531.4q-8 0-8 4v8" fill="none" stroke="#444"/><path d="m188 2276.5 3 8 3-8z" fill="#333"/><path d="m105.5 143.5v2502.5q0 4 4 4h6.5" fill="none" stroke="#444"/><path d="m116 2647 8 3-8 3z" fill="#333"/><path d="m142.5 2665v29.5q0 4 4 4h6.5" fill="none" stroke="#444"/><path d="m153 2695.5 8 3-8 3z" fill="#333"/><path d="m142.5 2665v78q0 4 4 4h6.5" fill="none" stroke="#444"/><path d="m153 2744 8 3-8 3z" fill="#333"/><path d="m142.5 2665v126.5q0 4 4 4h6.5" fill="none" stroke="#444"/><path d="m153 2792.5 8 3-8 3z" fill="#333"/><path d="m179.5 2810.5v29.5q0 4 4 4h6.5" fill="none" stroke="#444"/><path d="m190 2841 8 3-8 3z" fill="#333"/><path d="m142.5 2665v223.5q0 4 4 4h6.5" fill="none" stroke="#444"/><path d="m153 2889.5 8 3-8 3z" fill="#333"/><path d="m179.5 2907.5v29.5q0 4 4 4h6.5" fill="none" stroke="#444"/><path d="m190 2938 8 3-8 3z" fill="#333"/><path d="m142.5 2665v320.5q0 4 4 4h6.5" fill="none" stroke="#444"/><path d="m153 2986.5 8 3-8 3z" fill="#333"/><path d="m142.5 2665v369q0 4 4 4h6.5" fill="none" stroke="#444"/><path d="m153 3035 8 3-8 3z" fill="#333"/><path d="m142.5 2665v417.5q0 4 4 4h6.5" fill="none" stroke="#444"/><path d="m153 3083.5 8 3-8 3z" fill="#333"/><path d="m105.5 143.5v3002.5q0 4 4 4h6.5" fill="none" stroke="#444"/><path d="m116 3147 8 3-8 3z" fill="#333"/><path d="m142.5 3165v29.5q0 4 4 4h6.5" fill="none" stroke="#444"/><path d="m153 3195.5 8 3-8 3z" fill="#333"/><path d="m142.5 3165v78q0 4 4 4h6.5" fill="none" stroke="#444"/><path d="m153 3244 8 3-8 3z" fill="#333"/><path d="m142.5 3165v126.5q0 4 4 4h6.5" fill="none" stroke="#444"/><path d="m153 3292.5 8 3-8 3z" fill="#333"/><path d="m105.5 143.5v3196.5q0 4 4 4h6.5" fill="none" stroke="#444"/><path d="m116 3341 8 3-8 3z" fill="#333"/><path d="m142.5 3359v29.5q0 4 4 4h14.5" fill="none" stroke="#444"/>
               false
            <path d="m179.5 3407.5v29.5q0 4 4 4h6.5" fill="none" stroke="#444"/><path d="m190 3438 8 3-8 3z" fill="#333"/><path d="m216.5 3456v29.5q0 4 4 4h6.5" fill="none" stroke="#444"/><path d="m227 3486.5 8 3-8 3z" fill="#333"/><path d="m179.5 3407.5v126.5q0 4 4 4h6.5" fill="none" stroke="#444"/><path d="m190 3535 8 3-8 3z" fill="#333"/><path d="m216.5 3553v29.5q0 4 4 4h6.5" fill="none" stroke="#444"/><path d="m227 3583.5 8 3-8 3z" fill="#333"/><path d="m179.5 3407.5v258.5q0 4 4 4h6.5" fill="none" stroke="#444"/><path d="m190 3667 8 3-8 3z" fill="#333"/><path d="m228 3700v21q0 4 4 4h8" fill="none" stroke="#444"/><path d="m240 3722 8 3-8 3z" fill="#333"/><path d="m228 3700v69.5q0 4 4 4h8" fill="none" stroke="#444"/><path d="m240 3770.5 8 3-8 3z" fill="#333"/><path d="m535.4 3773.5h16q4 0 4-4v-141.5q0-8-4-8h-315.4q-8 0-8 4v8" fill="none" stroke="#444"/><path d="m225 3632 3 8 3-8z" fill="#333"/><path d="m179.5 3407.5v410.5q0 4 4 4h6.5" fill="none" stroke="#444"/><path d="m190 3819 8 3-8 3z" fill="#333"/><path d="m179.5 3407.5v459q0 4 4 4h6.5" fill="none" stroke="#444"/><path d="m190 3867.5 8 3-8 3z" fill="#333"/><path d="m105.5 143.5v3771.5q0 4 4 4h6.5" fill="none" stroke="#444"/><path d="m116 3916 8 3-8 3z" fill="#333"/><path d="m105.5 143.5v3820q0 4 4 4h6.5" fill="none" stroke="#444"/><path d="m116 3964.5 8 3-8 3z" fill="#333"/></svg>